<?xml version="1.0" ?><svg id="Layer_1" style="enable-background:new 0 0 512 512;" version="1.1" viewBox="0 0 512 512" xml:space="preserve" xmlns="http://www.w3.org/2000/svg" xmlns:xlink="http://www.w3.org/1999/xlink"><path d="M465.4,360.9c0-0.2,0.1-0.4,0.1-0.6v-55.4c0-39.6-32.2-71.7-71.7-71.7S322,265.4,322,304.9V404c0,46.3-37.6,83.9-83.9,83.9  s-83.9-37.6-83.9-83.9l0-46.3c22.9-1.1,41.7-10.3,56-27.2c14.2-16.9,20.5-37.6,23.3-52.1l46.9-165c4.3-15.1,3.1-31.3-3.4-45.6  C270.2,53,258.5,41,243.1,33c-10.4-5.4-22.1-8.9-34.2-10.3c-1.8-5-6.5-8.5-12-8.5c-7,0-12.8,5.7-12.8,12.8s5.7,12.8,12.8,12.8  c5,0,9.4-2.9,11.5-7.2c10.7,1.3,21,4.4,30.2,9.2c27,14,40,41.7,32.3,68.8l-34.7,122.1c-29.5,44.2-65.2,63.2-103.3,55  c-35.6-7.7-64-37.5-69.3-50.9L27.7,110.6C20,83.5,32.9,55.8,60,41.8c9.1-4.7,19.3-7.8,29.9-9.1c2.1,4.2,6.4,7.1,11.5,7.1  c7,0,12.8-5.7,12.8-12.8s-5.7-12.8-12.8-12.8c-5.6,0-10.3,3.6-12,8.5c-12,1.4-23.5,4.9-33.9,10.2C40,41,28.3,53,21.7,67.8  c-6.5,14.3-7.7,30.5-3.4,45.6l34.9,122.8c0.2,1,0.5,2.1,0.9,3.3l11.1,39c2.8,14.5,9,35.2,23.3,52.1c14.3,16.9,33.1,26.1,56,27.2  l0,46.3c0,51.7,42,93.7,93.7,93.7s93.7-42,93.7-93.7v-99.1c0-34.1,27.8-61.9,61.9-61.9s61.9,27.8,61.9,61.9v55.4  c0,0.2,0,0.4,0.1,0.6c-17.4,2.4-30.9,17.4-30.9,35.4c0,19.7,16,35.8,35.8,35.8c19.7,0,35.8-16,35.8-35.8  C496.3,378.2,482.8,363.3,465.4,360.9z M74.8,276.3c0-0.1-0.1-0.3-0.1-0.4l-3.6-12.6c14.3,14.4,35.8,28.9,59.7,34  c5.9,1.3,12.5,2.1,19.4,2.1c23.2,0,51.1-9.2,78.6-40.7l-4.9,17.2c0,0.1-0.1,0.3-0.1,0.4c-4,21.2-19.1,70.3-72.3,71.6  c-0.7-0.3-1.4-0.5-2.2-0.5c-0.8,0-1.5,0.2-2.2,0.5C93.8,346.6,78.8,297.6,74.8,276.3z M460.5,422.2c-14.3,0-25.9-11.6-25.9-25.9  c0-14.3,11.6-25.9,25.9-25.9c14.3,0,25.9,11.6,25.9,25.9C486.4,410.6,474.8,422.2,460.5,422.2z"/></svg>