<?xml version="1.0" ?><svg data-name="Layer 1" id="Layer_1" viewBox="0 0 32 32" xmlns="http://www.w3.org/2000/svg"><title/><path fill="#00578c" d="M23,23a1,1,0,0,0-1,1v1H21a1,1,0,0,0,0,2h1v1a1,1,0,0,0,2,0V27h1a1,1,0,0,0,0-2H24V24A1,1,0,0,0,23,23Z"/><path fill="#00578c" d="M3,30a1,1,0,0,0,1-1V25a9,9,0,0,1,5-8.05S9,17,9,17v3.59L6.29,23.29a1,1,0,0,0,0,1.41l1,1a1,1,0,0,0,1.41-1.41L8.41,24,10,22.41,11.59,24l-.29.29a1,1,0,1,0,1.41,1.41l1-1a1,1,0,0,0,0-1.41L11,20.59V17.13l4.36,3.63a1,1,0,0,0,1.28,0L21,17.13v1.14a2,2,0,1,0,2,0V16.95A9,9,0,0,1,28,25v4a1,1,0,0,0,2,0V25a11,11,0,0,0-7.61-10.46h0c-.23-.07-.46-.13-.69-.19h0q-.47-.12-1-.19a7,7,0,1,0-9.49,0L11,14.2l-.64.15h0A11,11,0,0,0,2,25v4A1,1,0,0,0,3,30ZM19,16h.22L16,18.7,12.78,16H19ZM11,9a5,5,0,1,1,5,5A5,5,0,0,1,11,9Z"/></svg>