<?xml version="1.0" ?><svg viewBox="0 0 64 64" xmlns="http://www.w3.org/2000/svg"><title/><g data-name="Layer 6" id="Layer_6"><path fill="#00578c" d="M49.5,39.739a1,1,0,1,0-1,1.731A11.039,11.039,0,0,1,54,51v5H49a3,3,0,0,0-3,3v3H18V59a3,3,0,0,0-3-3H10V51A11.013,11.013,0,0,1,21,40h7.127a4,4,0,0,0,7.746,0H43a11.119,11.119,0,0,1,1.835.152,1,1,0,0,0,.33-1.973A13.242,13.242,0,0,0,43,38H36V35.3a12.013,12.013,0,0,0,4.651-3,1.058,1.058,0,0,0,.119-.131A11.944,11.944,0,0,0,44,24a3.987,3.987,0,0,0,2-7.444V13A13.015,13.015,0,0,0,33,0H31A13.015,13.015,0,0,0,18,13v3.556A3.987,3.987,0,0,0,20,24a11.944,11.944,0,0,0,3.23,8.164,1.058,1.058,0,0,0,.119.131A12.013,12.013,0,0,0,28,35.3V38H21A13.015,13.015,0,0,0,8,51V63a1,1,0,0,0,1,1H55a1,1,0,0,0,1-1V51A13.043,13.043,0,0,0,49.5,39.739ZM25,31.129v-5.5a15.763,15.763,0,0,1,14,0v5.5a9.969,9.969,0,0,1-14,0Zm-2-2.8a9.924,9.924,0,0,1-.978-3.894l.978.978Zm18-2.916.978-.978A9.924,9.924,0,0,1,41,28.33ZM44,22V18a2,2,0,0,1,0,4ZM20,13A11.013,11.013,0,0,1,31,2h2A11.013,11.013,0,0,1,44,13v3H40.657a3,3,0,0,1-1.984-.75,1,1,0,1,0-1.322,1.5A4.992,4.992,0,0,0,40.657,18H42v3.586L39.789,23.8a17.873,17.873,0,0,0-15.578,0L22,21.586V18h9.343a4.968,4.968,0,0,0,3.536-1.464l1.828-1.829a1,1,0,0,0-1.414-1.414l-1.828,1.829A2.983,2.983,0,0,1,31.343,16H20Zm-2,7a2,2,0,0,1,2-2v4A2,2,0,0,1,18,20ZM32,36a11.986,11.986,0,0,0,2-.181V39a2,2,0,0,1-4,0V35.819A11.986,11.986,0,0,0,32,36ZM10,62V58h5a1,1,0,0,1,1,1v3Zm44,0H48V59a1,1,0,0,1,1-1h5Z"/><path fill="#00578c" d="M27,19a1,1,0,0,0-1,1v1a1,1,0,0,0,2,0V20A1,1,0,0,0,27,19Z"/><path fill="#00578c" d="M36,20v1a1,1,0,0,0,2,0V20a1,1,0,0,0-2,0Z"/></g></svg>