<?xml version="1.0" ?><svg
  id="Icons"
  style="enable-background: new 0 0 32 32"
  version="1.1"
  viewBox="0 0 32 32"
  xml:space="preserve"
  xmlns="http://www.w3.org/2000/svg"
  xmlns:xlink="http://www.w3.org/1999/xlink"
>
  <style type="text/css">
    .st0 {
      fill: none;
      stroke: #CAF0F8;
      stroke-width: 2;
      stroke-linecap: round;
      stroke-linejoin: round;
      stroke-miterlimit: 10;
    }
    .st1 {
      fill: none;
      stroke: #0096c7;
      stroke-width: 2;
      stroke-linejoin: round;
      stroke-miterlimit: 10;
    }
  </style>
  <path
    class="st0"
    d="M20,23h-8c-1.1,0-2-0.9-2-2V9c0-1.1,0.9-2,2-2h8c1.1,0,2,0.9,2,2v12C22,22.1,21.1,23,20,23z"
  />
  <path
    class="st1"
    d="M6,23V8.2C6,5.3,8.3,3,11.2,3h9.7C23.7,3,26,5.3,26,8.2V23"
  />
  <rect class="st0" height="8" width="12" x="10" y="10" />
  <line class="st0" x1="13" x2="9" y1="23" y2="29" />
  <line class="st0" x1="19" x2="23" y1="23" y2="29" />
  <line class="st0" x1="11" x2="21" y1="26" y2="26" />
  <line class="st0" x1="9" x2="23" y1="29" y2="29" />
</svg>
